<svg width="55.000000" height="55.000000" viewBox="0 0 55 55" fill="none" xmlns="http://www.w3.org/2000/svg" xmlns:xlink="http://www.w3.org/1999/xlink">
	<desc>
			Created with Pixso.
	</desc>
	<defs>
		<clipPath id="clip2_20">
			<rect id="file" rx="0.000000" width="54.000000" height="54.000000" transform="translate(0.500000 0.500000)" fill="white" fill-opacity="0"/>
		</clipPath>
	</defs>
	<rect id="file" rx="0.000000" width="54.000000" height="54.000000" transform="translate(0.500000 0.500000)" fill="#000000" fill-opacity="0"/>
	<g clip-path="url(#clip2_20)">
		<path id="Subtract" d="M8.86 13.64C8.86 17.74 12.18 21.06 16.27 21.06L16.27 45.83C16.27 46.9 17.14 47.76 18.2 47.76L45.2 47.76C46.27 47.76 47.13 46.9 47.13 45.83L47.13 22.69C47.13 21.62 46.51 20.14 45.77 19.39L39.5 13.13C38.75 12.38 37.27 11.76 36.2 11.76L23.45 11.76C22.61 8.58 19.72 6.23 16.27 6.23C12.18 6.23 8.86 9.55 8.86 13.64ZM21.27 14.64L17.27 14.64L17.27 18.64L15.27 18.64L15.27 14.64L11.27 14.64L11.27 12.64L15.27 12.64L15.27 8.64L17.27 8.64L17.27 12.64L21.27 12.64L21.27 14.64ZM23.66 14.33C23.39 17.22 21.47 19.63 18.85 20.6L18.85 45.19L44.56 45.19L44.56 24.62L36.2 24.62C35.14 24.62 34.27 23.75 34.27 22.69L34.27 14.33L23.66 14.33ZM36.85 14.49C37.19 14.61 37.53 14.79 37.67 14.93L43.96 21.22C44.1 21.36 44.28 21.7 44.4 22.05L36.85 22.05L36.85 14.49ZM23.99 27.83L23.99 29.12C23.99 29.48 24.27 29.76 24.63 29.76L38.77 29.76C39.14 29.76 39.42 29.48 39.42 29.12L39.42 27.83C39.42 27.47 39.14 27.19 38.77 27.19L24.63 27.19C24.27 27.19 23.99 27.47 23.99 27.83ZM38.77 32.33L24.63 32.33C24.27 32.33 23.99 32.61 23.99 32.97L23.99 34.26C23.99 34.62 24.27 34.9 24.63 34.9L38.77 34.9C39.14 34.9 39.42 34.62 39.42 34.26L39.42 32.97C39.42 32.61 39.14 32.33 38.77 32.33ZM24.63 37.47L38.77 37.47C39.14 37.47 39.42 37.76 39.42 38.12L39.42 39.4C39.42 39.76 39.14 40.05 38.77 40.05L24.63 40.05C24.27 40.05 23.99 39.76 23.99 39.4L23.99 38.12C23.99 37.76 24.27 37.47 24.63 37.47Z" fill="#FFFFFF" fill-opacity="1.000000" fill-rule="evenodd"/>
	</g>
</svg>
