<svg width="17.142883" height="20.000000" viewBox="0 0 17.1429 20" fill="none" xmlns="http://www.w3.org/2000/svg" xmlns:xlink="http://www.w3.org/1999/xlink">
	<desc>
			Created with Pixso.
	</desc>
	<defs/>
	<path id="" d="M16.38 4.24L12.9 0.75C12.48 0.34 11.66 0 11.07 0L1.07 0C0.47 0 0 0.47 0 1.07L0 18.92C0 19.52 0.47 20 1.07 20L16.07 20C16.66 20 17.14 19.52 17.14 18.92L17.14 6.07C17.14 5.47 16.79 4.65 16.38 4.24ZM11.42 1.51C11.61 1.58 11.8 1.68 11.88 1.76L15.37 5.25C15.45 5.33 15.55 5.52 15.62 5.71L11.42 5.71L11.42 1.51ZM15.71 18.57L1.42 18.57L1.42 1.42L10 1.42L10 6.07C10 6.66 10.47 7.14 11.07 7.14L15.71 7.14L15.71 18.57ZM4.28 8.92L4.28 9.64C4.28 9.84 4.44 10 4.64 10L12.5 10C12.7 10 12.85 9.84 12.85 9.64L12.85 8.92C12.85 8.72 12.7 8.57 12.5 8.57L4.64 8.57C4.44 8.57 4.28 8.72 4.28 8.92ZM12.5 11.42L4.64 11.42C4.44 11.42 4.28 11.58 4.28 11.78L4.28 12.5C4.28 12.7 4.44 12.85 4.64 12.85L12.5 12.85C12.7 12.85 12.85 12.7 12.85 12.5L12.85 11.78C12.85 11.58 12.7 11.42 12.5 11.42ZM12.5 14.28L4.64 14.28C4.44 14.28 4.28 14.44 4.28 14.64L4.28 15.35C4.28 15.55 4.44 15.71 4.64 15.71L12.5 15.71C12.7 15.71 12.85 15.55 12.85 15.35L12.85 14.64C12.85 14.44 12.7 14.28 12.5 14.28Z" fill="#272733" fill-opacity="1.000000" fill-rule="nonzero"/>
</svg>
