<svg width="20.000000" height="20.000000" viewBox="0 0 20 20" fill="none" xmlns="http://www.w3.org/2000/svg" xmlns:xlink="http://www.w3.org/1999/xlink">
	<desc>
			Created with Pixso.
	</desc>
	<defs>
		<clipPath id="clip4_221">
			<rect id="Frame 21" rx="0.000000" width="19.000000" height="19.000000" transform="translate(0.500000 0.500000)" fill="white" fill-opacity="0"/>
		</clipPath>
	</defs>
	<g clip-path="url(#clip4_221)">
		<path id="" d="M16.42 14.84C16.42 14.99 16.3 15.11 16.16 15.11L3.83 15.11C3.69 15.11 3.57 14.99 3.57 14.84L3.57 8.42C3.74 8.62 3.93 8.8 4.14 8.97C5.34 9.89 6.55 10.83 7.71 11.8C8.34 12.32 9.12 12.97 9.99 12.97L10 12.97L10 12.97C10.87 12.97 11.65 12.32 12.28 11.8C13.44 10.83 14.65 9.89 15.85 8.97C16.06 8.8 16.25 8.62 16.42 8.42L16.42 14.84ZM16.42 6.05C16.42 6.76 15.74 7.69 15.19 8.11C14.07 8.99 12.95 9.88 11.84 10.77C11.39 11.13 10.59 11.9 10 11.9L10 11.9L9.99 11.9C9.4 11.9 8.6 11.13 8.15 10.77C7.04 9.88 5.92 8.99 4.8 8.11C4.04 7.52 3.57 6.69 3.57 5.74C3.57 5.59 3.69 5.47 3.83 5.47L16.16 5.47C16.47 5.47 16.42 5.84 16.42 6.05ZM17.5 5.74C17.5 5 16.89 4.4 16.16 4.4L3.83 4.4C3.1 4.4 2.5 5 2.5 5.74L2.5 14.84C2.5 15.58 3.1 16.18 3.83 16.18L16.16 16.18C16.89 16.18 17.5 15.58 17.5 14.84L17.5 5.74Z" fill="#3E9CDC" fill-opacity="1.000000" fill-rule="nonzero"/>
	</g>
</svg>
