<svg width="55.000000" height="55.000000" viewBox="0 0 55 55" fill="none" xmlns="http://www.w3.org/2000/svg" xmlns:xlink="http://www.w3.org/1999/xlink">
	<desc>
			Created with Pixso.
	</desc>
	<defs>
		<clipPath id="clip2_26">
			<rect id="message" rx="0.000000" width="54.000000" height="54.000000" transform="translate(0.500000 0.500000)" fill="white" fill-opacity="0"/>
		</clipPath>
	</defs>
	<rect id="message" rx="0.000000" width="54.000000" height="54.000000" transform="translate(0.500000 0.500000)" fill="#000000" fill-opacity="0"/>
	<g clip-path="url(#clip2_26)">
		<path id="" d="M44.42 38.85C44.42 39.19 44.12 39.49 43.78 39.49L14.21 39.49C13.87 39.49 13.57 39.19 13.57 38.85L13.57 23.42C13.99 23.91 14.45 24.35 14.95 24.75C17.83 26.96 20.72 29.21 23.51 31.54C25.02 32.81 26.89 34.35 28.97 34.35L29 34.35L29.02 34.35C31.1 34.35 32.97 32.81 34.48 31.54C37.27 29.21 40.16 26.96 43.04 24.75C43.54 24.35 44 23.91 44.42 23.42L44.42 38.85ZM44.42 17.74C44.42 19.45 42.78 21.68 41.47 22.7C38.78 24.81 36.09 26.94 33.41 29.07C32.35 29.93 30.42 31.78 29.02 31.78L29 31.78L28.97 31.78C27.57 31.78 25.64 29.93 24.58 29.07C21.9 26.94 19.21 24.81 16.52 22.7C14.71 21.27 13.57 19.29 13.57 16.99C13.57 16.65 13.87 16.35 14.21 16.35L43.78 16.35C44.54 16.35 44.42 17.24 44.42 17.74ZM47 16.99C47 15.23 45.55 13.78 43.78 13.78L14.21 13.78C12.44 13.78 11 15.23 11 16.99L11 38.85C11 40.62 12.44 42.07 14.21 42.07L43.78 42.07C45.55 42.07 47 40.62 47 38.85L47 16.99Z" fill="#FFFFFF" fill-opacity="1.000000" fill-rule="nonzero"/>
	</g>
</svg>
