<svg width="55.000000" height="55.000000" viewBox="0 0 55 55" fill="none" xmlns="http://www.w3.org/2000/svg" xmlns:xlink="http://www.w3.org/1999/xlink">
	<desc>
			Created with Pixso.
	</desc>
	<defs>
		<clipPath id="clip2_32">
			<rect id="money" rx="0.000000" width="54.000000" height="54.000000" transform="translate(0.500000 0.500000)" fill="white" fill-opacity="0"/>
		</clipPath>
	</defs>
	<rect id="money" rx="0.000000" width="54.000000" height="54.000000" transform="translate(0.500000 0.500000)" fill="#000000" fill-opacity="0"/>
	<g clip-path="url(#clip2_32)">
		<path id="" d="M23.92 31.78L23.92 29.85L26.5 29.85L26.5 24.07L26.45 24.07C26.13 24.57 25.83 24.79 25.35 25.21L23.8 23.6L26.78 20.85L29.07 20.85L29.07 29.85L31.64 29.85L31.64 31.78L23.92 31.78ZM34.21 26.64C34.21 22.98 32 18.28 27.78 18.28C23.56 18.28 21.35 22.98 21.35 26.64C21.35 30.29 23.56 34.99 27.78 34.99C32 34.99 34.21 30.29 34.21 26.64ZM44.5 31.78C41.66 31.78 39.35 34.09 39.35 36.92L16.21 36.92C16.21 34.09 13.9 31.78 11.07 31.78L11.07 21.49C13.9 21.49 16.21 19.18 16.21 16.35L39.35 16.35C39.35 19.18 41.66 21.49 44.5 21.49L44.5 31.78ZM47.07 15.07C47.07 14.36 46.48 13.78 45.78 13.78L9.78 13.78C9.08 13.78 8.5 14.36 8.5 15.07L8.5 38.21C8.5 38.91 9.08 39.49 9.78 39.49L45.78 39.49C46.48 39.49 47.07 38.91 47.07 38.21L47.07 15.07Z" fill="#FFFFFF" fill-opacity="1.000000" fill-rule="nonzero"/>
	</g>
</svg>
