<svg width="55.000000" height="55.000000" viewBox="0 0 55 55" fill="none" xmlns="http://www.w3.org/2000/svg" xmlns:xlink="http://www.w3.org/1999/xlink">
	<desc>
			Created with Pixso.
	</desc>
	<defs>
		<clipPath id="clip2_14">
			<rect id="percent" rx="0.000000" width="54.000000" height="54.000000" transform="translate(0.500000 0.500000)" fill="white" fill-opacity="0"/>
		</clipPath>
	</defs>
	<rect id="percent" rx="0.000000" width="54.000000" height="54.000000" transform="translate(0.500000 0.500000)" fill="#000000" fill-opacity="0"/>
	<g clip-path="url(#clip2_14)">
		<path id="" d="M37.78 35.21C37.78 36.62 36.62 37.78 35.21 37.78C33.8 37.78 32.64 36.62 32.64 35.21C32.64 33.8 33.8 32.64 35.21 32.64C36.62 32.64 37.78 33.8 37.78 35.21ZM22.35 19.78C22.35 21.19 21.19 22.35 19.78 22.35C18.37 22.35 17.21 21.19 17.21 19.78C17.21 18.37 18.37 17.21 19.78 17.21C21.19 17.21 22.35 18.37 22.35 19.78ZM42.92 35.21C42.92 30.95 39.47 27.5 35.21 27.5C30.95 27.5 27.5 30.95 27.5 35.21C27.5 39.47 30.95 42.92 35.21 42.92C39.47 42.92 42.92 39.47 42.92 35.21ZM41 13.35C41 12.65 40.41 12.07 39.71 12.07L36.5 12.07C36.09 12.07 35.71 12.27 35.47 12.59L14.26 40.87C14.1 41.1 14 41.36 14 41.64C14 42.34 14.58 42.92 15.28 42.92L18.5 42.92C18.9 42.92 19.28 42.72 19.52 42.4L40.73 14.12C40.89 13.89 41 13.63 41 13.35ZM27.5 19.78C27.5 15.52 24.04 12.07 19.78 12.07C15.52 12.07 12.07 15.52 12.07 19.78C12.07 24.04 15.52 27.5 19.78 27.5C24.04 27.5 27.5 24.04 27.5 19.78Z" fill="#FFFFFF" fill-opacity="1.000000" fill-rule="nonzero"/>
	</g>
</svg>
