<svg width="20.000000" height="20.000000" viewBox="0 0 20 20" fill="none" xmlns="http://www.w3.org/2000/svg" xmlns:xlink="http://www.w3.org/1999/xlink">
	<desc>
			Created with Pixso.
	</desc>
	<defs>
		<clipPath id="clip4_175">
			<rect id="Ресурс 1 1" rx="0.000000" width="19.000000" height="19.000000" transform="translate(0.500000 0.500000)" fill="white" fill-opacity="0"/>
		</clipPath>
		<clipPath id="clip4_174">
			<rect id="Frame 19" rx="0.000000" width="19.000000" height="19.000000" transform="translate(0.500000 0.500000)" fill="white" fill-opacity="0"/>
		</clipPath>
	</defs>
	<g clip-path="url(#clip4_174)">
		<rect id="Ресурс 1 1" rx="0.000000" width="19.000000" height="19.000000" transform="translate(0.500000 0.500000)" fill="#FFFFFF" fill-opacity="0"/>
		<g clip-path="url(#clip4_175)">
			<path id="Vector" d="M16.41 13.45C16.47 13.84 16.34 14 16.21 14C16.08 14 15.9 13.85 15.69 13.53C15.48 13.22 15.41 12.87 15.51 12.69C15.55 12.63 15.61 12.59 15.68 12.57C15.75 12.55 15.83 12.56 15.9 12.59C16.24 12.71 16.37 13.22 16.41 13.45ZM14.52 14.3C14.93 14.64 15.05 15.03 14.84 15.31C14.77 15.39 14.69 15.46 14.59 15.5C14.5 15.54 14.39 15.56 14.29 15.55C14.06 15.55 13.84 15.48 13.66 15.33C13.29 15.02 13.18 14.51 13.42 14.22C13.48 14.16 13.54 14.11 13.62 14.08C13.7 14.05 13.78 14.04 13.86 14.04C14.1 14.05 14.34 14.14 14.52 14.3ZM13.84 17.53C15.6 17.53 17.51 18.12 19.63 19.93C19.84 20.11 20.12 19.89 19.94 19.66C17.86 17.12 15.93 16.64 14.01 16.23C11.67 15.73 10.46 14.45 9.61 13.05C9.45 12.77 9.37 12.82 9.36 13.18C9.34 13.71 9.38 14.24 9.48 14.77C9.39 14.77 9.29 14.77 9.19 14.77C7.99 14.77 6.82 14.42 5.82 13.77C4.82 13.13 4.04 12.21 3.58 11.14C3.12 10.06 3 8.88 3.23 7.74C3.47 6.6 4.05 5.55 4.9 4.73C5.75 3.91 6.83 3.35 8.01 3.12C9.19 2.89 10.41 3.01 11.52 3.45C12.63 3.9 13.58 4.65 14.25 5.62C14.92 6.59 15.27 7.72 15.27 8.89C15.27 9.11 15.26 9.34 15.23 9.57C14.59 9.49 13.95 9.48 13.3 9.53C13.07 9.55 13.11 9.66 13.28 9.69C15.28 10.04 16.67 11.24 16.99 13.43C16.99 13.44 16.99 13.45 17 13.46C17.01 13.47 17.02 13.47 17.03 13.48C17.04 13.48 17.05 13.48 17.06 13.47C17.07 13.47 17.08 13.46 17.09 13.45C18.13 11.77 18.57 9.79 18.33 7.84C18.09 5.89 17.19 4.07 15.77 2.67C14.35 1.26 12.49 0.35 10.48 0.08C8.47 -0.2 6.42 0.18 4.66 1.15C2.89 2.11 1.51 3.62 0.72 5.43C-0.07 7.24 -0.22 9.25 0.3 11.15C0.82 13.05 1.97 14.73 3.58 15.93C5.19 17.13 7.16 17.78 9.19 17.78C10.54 17.78 11.87 17.53 13.84 17.53L13.84 17.53Z" fill="#3E9CDC" fill-opacity="1.000000" fill-rule="nonzero"/>
		</g>
	</g>
</svg>
