<svg width="55.000000" height="55.000000" viewBox="0 0 55 55" fill="none" xmlns="http://www.w3.org/2000/svg" xmlns:xlink="http://www.w3.org/1999/xlink">
	<desc>
			Created with Pixso.
	</desc>
	<defs>
		<clipPath id="clip2_8">
			<rect id="search" rx="0.000000" width="54.000000" height="54.000000" transform="translate(0.500000 0.500000)" fill="white" fill-opacity="0"/>
		</clipPath>
	</defs>
	<rect id="search" rx="0.000000" width="54.000000" height="54.000000" transform="translate(0.500000 0.500000)" fill="#000000" fill-opacity="0"/>
	<g clip-path="url(#clip2_8)">
		<path id="" d="M33.92 24.92C33.92 29.89 29.89 33.92 24.92 33.92C19.96 33.92 15.92 29.89 15.92 24.92C15.92 19.96 19.96 15.92 24.92 15.92C29.89 15.92 33.92 19.96 33.92 24.92ZM44.21 41.64C44.21 40.95 43.93 40.29 43.47 39.83L36.58 32.94C38.2 30.59 39.07 27.78 39.07 24.92C39.07 17.11 32.74 10.78 24.92 10.78C17.11 10.78 10.78 17.11 10.78 24.92C10.78 32.74 17.11 39.07 24.92 39.07C27.78 39.07 30.59 38.2 32.94 36.58L39.83 43.45C40.29 43.93 40.95 44.21 41.64 44.21C43.04 44.21 44.21 43.04 44.21 41.64Z" fill="#FFFFFF" fill-opacity="1.000000" fill-rule="nonzero"/>
	</g>
</svg>
