<svg width="20.000000" height="20.000000" viewBox="0 0 20 20" fill="none" xmlns="http://www.w3.org/2000/svg" xmlns:xlink="http://www.w3.org/1999/xlink">
	<desc>
			Created with Pixso.
	</desc>
	<defs>
		<clipPath id="clip4_205">
			<rect id="Frame 21" rx="0.000000" width="19.000000" height="19.000000" transform="translate(0.500000 0.500000)" fill="white" fill-opacity="0"/>
		</clipPath>
	</defs>
	<g clip-path="url(#clip4_205)">
		<path id="В" d="M14.84 12.28C14.84 12.93 14.72 13.5 14.47 14C14.23 14.49 13.89 14.89 13.48 15.22C12.99 15.6 12.44 15.88 11.85 16.04C11.27 16.21 10.52 16.29 9.61 16.29L4.37 16.29L4.37 3.2L9 3.2C9.96 3.2 10.68 3.24 11.18 3.32C11.67 3.39 12.14 3.54 12.57 3.77C13.04 4.03 13.39 4.36 13.62 4.78C13.85 5.21 13.97 5.69 13.97 6.24C13.97 6.88 13.81 7.45 13.49 7.95C13.17 8.45 12.73 8.81 12.17 9.05L12.17 9.12C12.98 9.29 13.63 9.64 14.11 10.16C14.6 10.68 14.84 11.39 14.84 12.28ZM10.63 6.9C10.63 6.69 10.58 6.47 10.46 6.25C10.36 6.03 10.19 5.87 9.96 5.77C9.75 5.67 9.49 5.63 9.19 5.62C8.9 5.61 8.46 5.6 7.87 5.6L7.64 5.6L7.64 8.37L8.06 8.37C8.62 8.37 9.01 8.36 9.23 8.35C9.46 8.34 9.7 8.28 9.94 8.17C10.2 8.04 10.38 7.88 10.48 7.66C10.58 7.44 10.63 7.19 10.63 6.9ZM11.46 12.22C11.46 11.82 11.38 11.5 11.21 11.27C11.05 11.04 10.8 10.87 10.47 10.75C10.27 10.68 10 10.63 9.65 10.63C9.3 10.62 8.83 10.61 8.25 10.61L7.64 10.61L7.64 13.89L7.82 13.89C8.67 13.89 9.27 13.88 9.59 13.87C9.92 13.86 10.26 13.78 10.6 13.63C10.89 13.51 11.11 13.32 11.25 13.07C11.39 12.82 11.46 12.54 11.46 12.22Z" fill="#3E9CDC" fill-opacity="1.000000" fill-rule="nonzero"/>
	</g>
</svg>
