<svg width="20.000000" height="20.000000" viewBox="0 0 20 20" fill="none" xmlns="http://www.w3.org/2000/svg" xmlns:xlink="http://www.w3.org/1999/xlink">
	<desc>
			Created with Pixso.
	</desc>
	<defs>
		<clipPath id="clip4_184">
			<rect id="Frame 21" rx="0.000000" width="19.000000" height="19.000000" transform="translate(0.500000 0.500000)" fill="white" fill-opacity="0"/>
		</clipPath>
	</defs>
	<g clip-path="url(#clip4_184)">
		<path id="Combined Shape" d="M8.84 0C10.25 0 11.59 0.32 12.79 0.9C12.98 0.98 13.17 1.08 13.36 1.19L12.53 1.92L11.3 0.64L9.16 2.51L7.91 1.17L3.99 4.65L6.5 7.39L5.52 8.24L7.99 10.98L7.01 11.83L10.56 15.72L12.65 13.82L14.48 15.86C14.12 16.13 13.72 16.4 13.29 16.64C11.98 17.37 10.47 17.8 8.85 17.8C3.88 17.8 -0.16 13.8 -0.16 8.89C-0.18 4.01 3.87 0 8.84 0ZM7.18 8.34L9.33 6.44L11.26 8.56L9.11 10.47L7.18 8.34ZM8.72 12.02L10.85 10.1L12.79 12.22L10.64 14.12L8.72 12.02ZM5.65 4.72L7.8 2.82L9.73 4.94L7.58 6.85L5.65 4.72ZM9.59 3.7L11.19 2.27L12.64 3.85L11.04 5.3L9.59 3.7ZM12.45 10.25L14.05 8.82L15.49 10.42L13.89 11.85L12.45 10.25ZM13.86 13.46L15.46 12.03L16.9 13.61L15.3 15.06L13.86 13.46ZM14.51 6.12L15.58 5.16L16.54 6.22L15.47 7.17L14.51 6.12ZM13.14 2.97L14.2 2L15.17 3.07L14.1 4.02L13.14 2.97ZM15.87 9.26L16.94 8.31L17.92 9.36L16.83 10.32L15.87 9.26ZM11.07 6.9L12.67 5.47L14.12 7.05L12.52 8.48L11.07 6.9Z" fill="#3E9CDC" fill-opacity="1.000000" fill-rule="nonzero"/>
	</g>
</svg>
