<svg width="20.000000" height="20.000000" viewBox="0 0 20 20" fill="none" xmlns="http://www.w3.org/2000/svg" xmlns:xlink="http://www.w3.org/1999/xlink">
	<desc>
			Created with Pixso.
	</desc>
	<defs>
		<clipPath id="clip4_179">
			<rect id="Frame 20" rx="0.000000" width="19.000000" height="19.000000" transform="translate(0.500000 0.500000)" fill="white" fill-opacity="0"/>
		</clipPath>
	</defs>
	<g clip-path="url(#clip4_179)">
		<path id="Vector" d="M3.27 9.93C3.27 8.94 3.36 8.32 5.41 6.8C7.11 5.54 12.57 1.23 12.57 1.23L12.57 8.42L16.72 8.42L16.72 18.76L4.57 18.76C3.86 18.76 3.27 18.18 3.27 17.47L3.27 9.93L3.27 9.93Z" fill="#3E9CDC" fill-opacity="1.000000" fill-rule="evenodd"/>
		<path id="Vector" d="M12.57 8.42L12.57 12.58L4.95 17.73L14.58 14.62L14.58 8.42L12.57 8.42Z" fill="#000000" fill-opacity="0.200000" fill-rule="evenodd"/>
		<path id="Vector" d="M9.09 8.2C9.53 7.68 10.18 7.49 10.54 7.79C10.9 8.08 10.83 8.75 10.38 9.28C9.93 9.81 9.28 9.99 8.93 9.69C8.57 9.4 8.64 8.73 9.09 8.2L9.09 8.2Z" fill="#231F20" fill-opacity="1.000000" fill-rule="evenodd"/>
	</g>
</svg>
